<?xml version="1.0" standalone="no"?>
<!DOCTYPE svg PUBLIC "-//W3C//DTD SVG 20010904//EN"
 "http://www.w3.org/TR/2001/REC-SVG-20010904/DTD/svg10.dtd">
<svg version="1.0" xmlns="http://www.w3.org/2000/svg"
 width="700.000000pt" height="700.000000pt" viewBox="0 0 700.000000 700.000000"
 preserveAspectRatio="xMidYMid meet">
<metadata>
Created by potrace 1.14, written by Peter Selinger 2001-2017
</metadata>
<g transform="translate(0.000000,700.000000) scale(0.100000,-0.100000)"
fill="#000000" stroke="none">
<path d="M3470 6455 l0 -546 403 3 c397 3 403 3 449 26 65 32 125 94 156 160
l27 57 0 290 c0 255 -2 296 -18 342 -24 70 -93 145 -165 180 l-57 28 -397 3
-398 3 0 -546z"/>
<path d="M5466 5640 c-87 -31 -122 -60 -321 -259 -169 -171 -180 -180 -200
-167 -189 124 -524 264 -790 330 -402 101 -845 108 -1265 21 -424 -88 -887
-314 -1225 -598 -116 -98 -292 -277 -385 -392 -295 -363 -509 -837 -584 -1295
-54 -327 -49 -687 14 -1014 110 -568 427 -1131 855 -1519 433 -392 933 -630
1506 -718 119 -18 189 -22 404 -23 271 -1 341 5 560 49 579 116 1127 428 1523
865 383 422 614 908 708 1485 22 136 30 540 14 688 -44 409 -168 790 -372
1141 l-40 68 190 192 c164 164 195 200 222 258 62 133 62 254 0 387 -27 57
-58 93 -223 257 -165 164 -202 196 -261 225 -63 30 -80 34 -170 37 -82 2 -112
-2 -160 -18z m-1800 -821 c369 -36 723 -173 1022 -396 95 -71 263 -232 347
-333 230 -276 386 -632 440 -1001 19 -136 19 -411 0 -547 -123 -868 -776
-1551 -1638 -1713 -158 -30 -449 -37 -614 -15 -907 120 -1616 816 -1748 1717
-20 140 -20 414 1 560 50 361 204 713 433 993 78 95 258 268 352 338 403 301
913 445 1405 397z"/>
<path d="M3735 3496 c-315 -82 -599 -199 -700 -288 -224 -197 -273 -549 -114
-814 48 -80 164 -186 250 -229 189 -96 408 -101 584 -13 83 41 157 99 207 161
86 109 190 363 263 647 49 191 55 234 43 300 -27 149 -149 260 -303 275 -51 4
-87 -2 -230 -39z"/>
</g>
</svg>
